<svg xmlns="http://www.w3.org/2000/svg" fill="#fff" width="475.082" height="475.081">
    <path d="M461.667 49.963c-8.949-8.947-19.698-13.418-32.265-13.418H45.682c-12.562 0-23.317 4.471-32.264 13.418C4.473 58.912 0 69.663 0 82.228V392.86c0 12.566 4.473 23.309 13.418 32.261 8.947 8.949 19.701 13.415 32.264 13.415h383.72c12.566 0 23.315-4.466 32.265-13.415 8.945-8.952 13.415-19.701 13.415-32.261V82.228c0-12.565-4.47-23.319-13.415-32.265zM146.183 392.85c0 2.673-.859 4.856-2.574 6.571-1.712 1.711-3.899 2.562-6.567 2.562h-91.36c-2.662 0-4.853-.852-6.567-2.562-1.713-1.715-2.568-3.898-2.568-6.571v-54.82c0-2.669.855-4.853 2.568-6.56 1.714-1.719 3.905-2.574 6.567-2.574h91.363c2.667 0 4.858.855 6.567 2.574 1.711 1.707 2.57 3.891 2.57 6.56v54.82zm0-109.629c0 2.663-.859 4.854-2.574 6.564-1.712 1.714-3.899 2.569-6.567 2.569h-91.36c-2.662 0-4.853-.855-6.567-2.569-1.713-1.711-2.568-3.901-2.568-6.564v-54.819c0-2.664.855-4.854 2.568-6.567 1.714-1.709 3.905-2.565 6.567-2.565h91.363c2.667 0 4.854.855 6.567 2.565 1.711 1.713 2.57 3.903 2.57 6.567v54.819zm0-109.634c0 2.666-.859 4.853-2.574 6.567-1.712 1.709-3.899 2.568-6.567 2.568h-91.36c-2.662 0-4.853-.859-6.567-2.568-1.713-1.715-2.568-3.901-2.568-6.567V118.77c0-2.666.855-4.856 2.568-6.567 1.714-1.713 3.905-2.568 6.567-2.568h91.363c2.667 0 4.854.855 6.567 2.568 1.711 1.711 2.57 3.901 2.57 6.567v54.817zM292.362 392.85c0 2.673-.855 4.856-2.563 6.571-1.711 1.711-3.9 2.562-6.57 2.562H191.86c-2.663 0-4.853-.852-6.567-2.562-1.713-1.715-2.568-3.898-2.568-6.571v-54.82c0-2.669.855-4.853 2.568-6.56 1.714-1.719 3.904-2.574 6.567-2.574h91.365c2.669 0 4.859.855 6.57 2.574 1.704 1.707 2.56 3.891 2.56 6.56v54.819h.007zm0-109.629c0 2.663-.855 4.854-2.563 6.564-1.711 1.714-3.9 2.569-6.57 2.569H191.86c-2.663 0-4.853-.855-6.567-2.569-1.713-1.711-2.568-3.901-2.568-6.564v-54.819c0-2.664.855-4.854 2.568-6.567 1.714-1.709 3.904-2.565 6.567-2.565h91.365c2.669 0 4.859.855 6.57 2.565 1.704 1.713 2.56 3.903 2.56 6.567v54.819h.007zm0-109.634c0 2.666-.855 4.853-2.563 6.567-1.711 1.709-3.9 2.568-6.57 2.568H191.86c-2.663 0-4.853-.859-6.567-2.568-1.713-1.715-2.568-3.901-2.568-6.567V118.77c0-2.666.855-4.856 2.568-6.567 1.714-1.713 3.904-2.568 6.567-2.568h91.365c2.669 0 4.859.855 6.57 2.568 1.704 1.711 2.56 3.901 2.56 6.567v54.817h.007zM438.536 392.85c0 2.673-.855 4.856-2.562 6.571-1.718 1.711-3.908 2.562-6.571 2.562h-91.354c-2.673 0-4.862-.852-6.57-2.562-1.711-1.715-2.56-3.898-2.56-6.571v-54.82c0-2.669.849-4.853 2.56-6.56 1.708-1.719 3.897-2.574 6.57-2.574h91.354c2.663 0 4.854.855 6.571 2.574 1.707 1.707 2.562 3.891 2.562 6.56v54.82zm0-109.629c0 2.663-.855 4.854-2.562 6.564-1.718 1.714-3.908 2.569-6.571 2.569h-91.354c-2.673 0-4.862-.855-6.57-2.569-1.711-1.711-2.56-3.901-2.56-6.564v-54.819c0-2.664.849-4.854 2.56-6.567 1.708-1.709 3.897-2.565 6.57-2.565h91.354c2.663 0 4.854.855 6.571 2.565 1.707 1.713 2.562 3.903 2.562 6.567v54.819zm0-109.634c0 2.666-.855 4.853-2.562 6.567-1.718 1.709-3.908 2.568-6.571 2.568h-91.354c-2.673 0-4.862-.859-6.57-2.568-1.711-1.715-2.56-3.901-2.56-6.567V118.77c0-2.666.849-4.856 2.56-6.567 1.708-1.713 3.897-2.568 6.57-2.568h91.354c2.663 0 4.854.855 6.571 2.568 1.707 1.711 2.562 3.901 2.562 6.567v54.817z"/>
</svg>
